G04 PROTEUS GERBER X2 FILE*
%TF.GenerationSoftware,Labcenter,Proteus,8.13-SP0-Build31525*%
%TF.CreationDate,2024-05-12T14:24:26+00:00*%
%TF.FileFunction,Copper,L1,Top*%
%TF.FilePolarity,Positive*%
%TF.Part,Single*%
%TF.SameCoordinates,{a0f7e056-3ba2-47e4-9380-b7f19c802b0c}*%
%FSLAX45Y45*%
%MOMM*%
G01*
%TA.AperFunction,Conductor*%
%ADD10C,0.762000*%
%ADD11C,0.279400*%
%ADD12C,1.270000*%
%TA.AperFunction,ViaPad*%
%ADD13C,0.762000*%
%ADD14C,0.600000*%
%TA.AperFunction,Conductor*%
%ADD15C,0.254000*%
%AMPPAD006*
4,1,36,
-1.905000,-0.584200,
-1.905000,0.584200,
-1.898940,0.646520,
-1.881490,0.704160,
-1.853770,0.755980,
-1.816890,0.800890,
-1.771980,0.837760,
-1.720160,0.865480,
-1.662520,0.882930,
-1.600200,0.889000,
1.600200,0.889000,
1.662520,0.882930,
1.720160,0.865480,
1.771980,0.837760,
1.816890,0.800890,
1.853770,0.755980,
1.881490,0.704160,
1.898940,0.646520,
1.905000,0.584200,
1.905000,-0.584200,
1.898940,-0.646520,
1.881490,-0.704160,
1.853770,-0.755980,
1.816890,-0.800890,
1.771980,-0.837760,
1.720160,-0.865480,
1.662520,-0.882930,
1.600200,-0.889000,
-1.600200,-0.889000,
-1.662520,-0.882930,
-1.720160,-0.865480,
-1.771980,-0.837760,
-1.816890,-0.800890,
-1.853770,-0.755980,
-1.881490,-0.704160,
-1.898940,-0.646520,
-1.905000,-0.584200,
0*%
%TA.AperFunction,ComponentPad*%
%ADD16PPAD006*%
%TA.AperFunction,ComponentPad*%
%ADD17C,3.048000*%
%AMDIL008*
4,1,8,
-1.270000,0.381000,-1.016000,0.635000,1.016000,0.635000,1.270000,0.381000,1.270000,-0.381000,
1.016000,-0.635000,-1.016000,-0.635000,-1.270000,-0.381000,-1.270000,0.381000,
0*%
%ADD18DIL008*%
%TA.AperFunction,ComponentPad*%
%ADD19R,2.032000X2.032000*%
%TA.AperFunction,ComponentPad*%
%ADD70R,1.270000X1.270000*%
%ADD71C,1.270000*%
%TA.AperFunction,OtherPad,Unknown*%
%ADD20C,3.352800*%
%ADD21C,6.350000*%
%TA.AperFunction,Profile*%
%ADD22C,0.203200*%
%TD.AperFunction*%
G36*
X+3002940Y+5869861D02*
X+2856262Y+6016539D01*
X+2643738Y+6016539D01*
X+2493461Y+5866262D01*
X+2493461Y+5653738D01*
X+2643738Y+5503461D01*
X+2856262Y+5503461D01*
X+3002940Y+5650139D01*
X+3002940Y-2830139D01*
X+2856262Y-2683461D01*
X+2643738Y-2683461D01*
X+2493461Y-2833738D01*
X+2493461Y-3046262D01*
X+2643738Y-3196539D01*
X+2856262Y-3196539D01*
X+3002940Y-3049861D01*
X+3002940Y-3238240D01*
X-1883540Y-3238240D01*
X-1883540Y-558799D01*
X-1437978Y-558799D01*
X-1636891Y-757712D01*
X-1636891Y-1438182D01*
X-1437496Y-1637577D01*
X-1437496Y-1709056D01*
X-1444751Y-1701801D01*
X-1644649Y-1701801D01*
X-1785999Y-1843151D01*
X-1785999Y-2043049D01*
X-1644649Y-2184399D01*
X-1444751Y-2184399D01*
X-1437496Y-2177144D01*
X-1437496Y-2392213D01*
X-1342086Y-2487623D01*
X+2438892Y-2487623D01*
X+2479480Y-2528211D01*
X+2667636Y-2450273D01*
X+2667636Y-2184399D01*
X+2847849Y-2184399D01*
X+2989199Y-2043049D01*
X+2989199Y-1843151D01*
X+2847849Y-1701801D01*
X+2667636Y-1701801D01*
X+2667636Y-409035D01*
X+2988299Y-88372D01*
X+2988299Y+1312565D01*
X+2625399Y+1675465D01*
X+2625399Y+1694499D01*
X+2193601Y+1694499D01*
X+2193601Y+1389701D01*
X+2480115Y+1389701D01*
X+2683501Y+1186315D01*
X+2683501Y+37878D01*
X+2362838Y-282785D01*
X+2362838Y-495590D01*
X+2335949Y-468701D01*
X+2136051Y-468701D01*
X+1994701Y-610051D01*
X+1994701Y-809949D01*
X+2136051Y-951299D01*
X+2335949Y-951299D01*
X+2362838Y-924410D01*
X+2362838Y-1724790D01*
X+2339849Y-1701801D01*
X+2139951Y-1701801D01*
X+1998601Y-1843151D01*
X+1998601Y-2043049D01*
X+2138377Y-2182825D01*
X+1701723Y-2182825D01*
X+1841499Y-2043049D01*
X+1841499Y-1843151D01*
X+1700149Y-1701801D01*
X+1500251Y-1701801D01*
X+1358901Y-1843151D01*
X+1358901Y-2043049D01*
X+1498677Y-2182825D01*
X+1193723Y-2182825D01*
X+1333499Y-2043049D01*
X+1333499Y-1843151D01*
X+1192149Y-1701801D01*
X+992251Y-1701801D01*
X+850901Y-1843151D01*
X+850901Y-2043049D01*
X+990677Y-2182825D01*
X+685723Y-2182825D01*
X+825499Y-2043049D01*
X+825499Y-1843151D01*
X+684149Y-1701801D01*
X+625695Y-1701801D01*
X+625695Y-968242D01*
X+551301Y-893848D01*
X+462741Y-893848D01*
X+462741Y-831356D01*
X+527372Y-766725D01*
X+527372Y-615770D01*
X+470401Y-558799D01*
X+914399Y-558799D01*
X+914399Y+2031633D01*
X+1141731Y+1804301D01*
X+1141731Y+1739899D01*
X+1085993Y+1739899D01*
X+1113248Y+1767154D01*
X+1113248Y+1832186D01*
X+1067264Y+1878170D01*
X+1002232Y+1878170D01*
X+956248Y+1832186D01*
X+956248Y+1767154D01*
X+1002232Y+1721170D01*
X+1054101Y+1721170D01*
X+1054101Y+1358901D01*
X+1879977Y+1358901D01*
X+1359275Y+838199D01*
X+1233551Y+838199D01*
X+1092201Y+696849D01*
X+1092201Y+496951D01*
X+1233551Y+355601D01*
X+1433449Y+355601D01*
X+1574799Y+496951D01*
X+1574799Y+622675D01*
X+1600201Y+648077D01*
X+1600201Y+496951D01*
X+1741551Y+355601D01*
X+1941449Y+355601D01*
X+2082799Y+496951D01*
X+2082799Y+696849D01*
X+1941449Y+838199D01*
X+1790323Y+838199D01*
X+2187882Y+1235758D01*
X+2187882Y+2094837D01*
X+2098608Y+2184111D01*
X+1543772Y+2184111D01*
X+1454499Y+2094838D01*
X+1454499Y+1968586D01*
X+1543772Y+1879313D01*
X+1883084Y+1879313D01*
X+1883084Y+1739899D01*
X+1347469Y+1739899D01*
X+1347469Y+1889519D01*
X+1075125Y+2161863D01*
X+1075125Y+2336500D01*
X+1105135Y+2366510D01*
X+1105135Y+2471720D01*
X+1030741Y+2546114D01*
X+925531Y+2546114D01*
X+914399Y+2534982D01*
X+914399Y+5130799D01*
X+355601Y+5130799D01*
X+355601Y+4514680D01*
X+291310Y+4514680D01*
X+145002Y+4368372D01*
X+145002Y-242604D01*
X+315400Y-413002D01*
X+219396Y-413002D01*
X+145002Y-487396D01*
X+145002Y-592604D01*
X+168256Y-615858D01*
X+128690Y-655425D01*
X+128690Y-655427D01*
X-147699Y-931816D01*
X-147699Y-1728851D01*
X-261999Y-1843151D01*
X-261999Y-2043049D01*
X-122223Y-2182825D01*
X-427177Y-2182825D01*
X-287401Y-2043049D01*
X-287401Y-1843151D01*
X-428751Y-1701801D01*
X-628649Y-1701801D01*
X-769999Y-1843151D01*
X-769999Y-2043049D01*
X-630223Y-2182825D01*
X-935177Y-2182825D01*
X-795401Y-2043049D01*
X-795401Y-1843151D01*
X-909701Y-1728851D01*
X-909701Y-1025803D01*
X-845518Y-961620D01*
X-845518Y-1035884D01*
X-787399Y-1094003D01*
X-787399Y-1094005D01*
X-713005Y-1168399D01*
X-607795Y-1168399D01*
X-533401Y-1094005D01*
X-533401Y-988795D01*
X-591520Y-930676D01*
X-591520Y+3164766D01*
X-665914Y+3239160D01*
X-771124Y+3239160D01*
X-845518Y+3164766D01*
X-845518Y-622301D01*
X-865405Y-622301D01*
X-939799Y-696695D01*
X-939799Y-696697D01*
X-1163699Y-920597D01*
X-1163699Y-1480326D01*
X-1332093Y-1311932D01*
X-1332093Y-883962D01*
X-1107601Y-659470D01*
X-1107601Y-76875D01*
X-1209875Y+25399D01*
X-1371601Y+25399D01*
X-1371601Y+5130799D01*
X-1883540Y+5130799D01*
X-1883540Y+6038240D01*
X+3002940Y+6038240D01*
X+3002940Y+5869861D01*
G37*
%LPC*%
G36*
X+2625399Y+373701D02*
X+2625399Y+119701D01*
X+2193601Y+119701D01*
X+2193601Y+678499D01*
X+2625399Y+678499D01*
X+2625399Y+373701D01*
G37*
G36*
X+2193601Y+881701D02*
X+2193601Y+1186499D01*
X+2625399Y+1186499D01*
X+2625399Y+881701D01*
X+2193601Y+881701D01*
G37*
G36*
X+2829599Y+4446049D02*
X+2829599Y+4246151D01*
X+2688249Y+4104801D01*
X+2526603Y+4104801D01*
X+2264523Y+3842721D01*
X+2110329Y+3842721D01*
X+2035935Y+3917115D01*
X+2035935Y+4032324D01*
X+2108412Y+4104801D01*
X+1980351Y+4104801D01*
X+1839001Y+4246151D01*
X+1839001Y+4446049D01*
X+1980351Y+4587399D01*
X+2180249Y+4587399D01*
X+2321599Y+4446049D01*
X+2321599Y+4259001D01*
X+2347001Y+4284403D01*
X+2347001Y+4446049D01*
X+2488351Y+4587399D01*
X+2688249Y+4587399D01*
X+2829599Y+4446049D01*
G37*
G36*
X+1799949Y+2840976D02*
X+1799949Y+2714724D01*
X+1710676Y+2625451D01*
X+1584424Y+2625451D01*
X+1545949Y+2663926D01*
X+1545949Y+2625451D01*
X+1241151Y+2625451D01*
X+1241151Y+2930249D01*
X+1545949Y+2930249D01*
X+1545949Y+2891774D01*
X+1584424Y+2930249D01*
X+1710676Y+2930249D01*
X+1799949Y+2840976D01*
G37*
G36*
X+1799949Y+3602976D02*
X+1799949Y+3476724D01*
X+1710676Y+3387451D01*
X+1584424Y+3387451D01*
X+1520550Y+3451325D01*
X+1456676Y+3387451D01*
X+1337028Y+3387451D01*
X+1337028Y+3378579D01*
X+1288671Y+3330222D01*
X+1220285Y+3330222D01*
X+1171928Y+3378579D01*
X+1171928Y+3446965D01*
X+1220285Y+3495322D01*
X+1241151Y+3495322D01*
X+1241151Y+3602976D01*
X+1330424Y+3692249D01*
X+1456676Y+3692249D01*
X+1520550Y+3628375D01*
X+1584424Y+3692249D01*
X+1710676Y+3692249D01*
X+1799949Y+3602976D01*
G37*
G36*
X-1806539Y+5653738D02*
X-1806539Y+5866262D01*
X-1656262Y+6016539D01*
X-1443738Y+6016539D01*
X-1293461Y+5866262D01*
X-1293461Y+5653738D01*
X-1443738Y+5503461D01*
X-1656262Y+5503461D01*
X-1806539Y+5653738D01*
G37*
G36*
X-1806539Y-3046262D02*
X-1806539Y-2833738D01*
X-1656262Y-2683461D01*
X-1443738Y-2683461D01*
X-1293461Y-2833738D01*
X-1293461Y-3046262D01*
X-1443738Y-3196539D01*
X-1656262Y-3196539D01*
X-1806539Y-3046262D01*
G37*
G36*
X+1695000Y+5679735D02*
X+1861664Y+5846399D01*
X+2198336Y+5846399D01*
X+2436399Y+5608336D01*
X+2436399Y+5271664D01*
X+2198336Y+5033601D01*
X+1861664Y+5033601D01*
X+1685000Y+5210265D01*
X+1518336Y+5043601D01*
X+1181664Y+5043601D01*
X+943601Y+5281664D01*
X+943601Y+5618336D01*
X+1181664Y+5856399D01*
X+1518336Y+5856399D01*
X+1695000Y+5679735D01*
G37*
G36*
X+978701Y-809949D02*
X+978701Y-610051D01*
X+1120051Y-468701D01*
X+1319949Y-468701D01*
X+1461299Y-610051D01*
X+1461299Y-809949D01*
X+1319949Y-951299D01*
X+1120051Y-951299D01*
X+978701Y-809949D01*
G37*
G36*
X+1486701Y-809949D02*
X+1486701Y-610051D01*
X+1628051Y-468701D01*
X+1827949Y-468701D01*
X+1969299Y-610051D01*
X+1969299Y-809949D01*
X+1827949Y-951299D01*
X+1628051Y-951299D01*
X+1486701Y-809949D01*
G37*
G36*
X-116600Y-410665D02*
X-116600Y-345633D01*
X-70616Y-299649D01*
X-5584Y-299649D01*
X+40400Y-345633D01*
X+40400Y-410665D01*
X-5584Y-456649D01*
X-70616Y-456649D01*
X-116600Y-410665D01*
G37*
G36*
X-1798532Y-1340294D02*
X-1798532Y-1275262D01*
X-1752548Y-1229278D01*
X-1687516Y-1229278D01*
X-1641532Y-1275262D01*
X-1641532Y-1340294D01*
X-1687516Y-1386278D01*
X-1752548Y-1386278D01*
X-1798532Y-1340294D01*
G37*
G36*
X+2582004Y+2757300D02*
X+2582004Y+2825686D01*
X+2630361Y+2874043D01*
X+2698747Y+2874043D01*
X+2747104Y+2825686D01*
X+2747104Y+2757300D01*
X+2698747Y+2708943D01*
X+2630361Y+2708943D01*
X+2582004Y+2757300D01*
G37*
G36*
X-294028Y+1027919D02*
X-294028Y+1005248D01*
X-62812Y+774032D01*
X-40141Y+774032D01*
X+29508Y+704383D01*
X+29508Y+605883D01*
X+20342Y+596716D01*
X+106999Y+510059D01*
X+106999Y+377395D01*
X+32605Y+303001D01*
X-72605Y+303001D01*
X-146999Y+377395D01*
X-146999Y+404853D01*
X-581754Y+839608D01*
X-581754Y+944816D01*
X-531826Y+994744D01*
X-531826Y+1027919D01*
X-462177Y+1097568D01*
X-363677Y+1097568D01*
X-294028Y+1027919D01*
G37*
%LPD*%
D10*
X-1036700Y-1943100D02*
X-1036700Y-973200D01*
X-812800Y-749300D01*
X-20700Y-1943100D02*
X-20700Y-984419D01*
X+255689Y-708030D01*
X-718519Y+3112161D02*
X-718519Y-983281D01*
X-660400Y-1041400D01*
D11*
X+1244600Y+1549400D02*
X+1244600Y+1846910D01*
X+972256Y+2119254D01*
X+972256Y+2413235D01*
X+978136Y+2419115D01*
D10*
X+343914Y+4387682D02*
X+272000Y+4315768D01*
X+272000Y-190000D01*
X+369618Y-287618D01*
X+372000Y-287618D01*
X+498696Y-1020847D02*
X+498696Y-1816696D01*
X+622000Y-1940000D01*
X+584200Y-1943100D01*
X-38100Y-378149D02*
X+350446Y-378149D01*
X+351259Y-378962D01*
X+353297Y-381000D01*
X+619999Y-381000D01*
X+635000Y-381000D01*
X-528700Y-1943100D02*
X-528700Y-783484D01*
X-124178Y-378962D01*
X+351259Y-378962D01*
X+617961Y-378962D01*
X+619999Y-381000D01*
X+642351Y-403352D01*
X+635000Y-381000D01*
X+635000Y-127000D02*
X+978187Y-127000D01*
X+978924Y-126263D01*
X+978924Y+1743846D01*
X+1034748Y+1799670D01*
X+2162934Y+3979719D02*
X+2162934Y+3969719D01*
X+2211919Y+3969719D01*
X+2588300Y+4346100D01*
X+1254478Y+3412772D02*
X+1254478Y+3684478D01*
X+1916100Y+4346100D01*
X+2080300Y+4346100D01*
X+2664554Y+2791493D02*
X+1661193Y+2791493D01*
X+1647550Y+2777850D01*
D12*
X-1651000Y-127000D02*
X-1273000Y-127000D01*
X-1260000Y-140000D01*
X-1260000Y-596345D01*
X-1484492Y-820837D01*
X-1484492Y-1375057D01*
X-1285097Y-1574452D01*
X-1285097Y-2329088D01*
X-1278961Y-2335224D01*
X+2502017Y-2335224D01*
X+2515237Y-2348444D01*
X+2515237Y-345910D01*
X+2835900Y-25247D01*
X+2835900Y+1249440D01*
X+2789037Y+1296303D01*
X+2543240Y+1542100D01*
X+2409500Y+1542100D01*
X+1333500Y+596900D02*
X+2035483Y+1298883D01*
X+2035483Y+2031712D01*
X+1606898Y+2031712D01*
D10*
X+335742Y-1353970D02*
X+335742Y-778753D01*
X+400373Y-714122D01*
X+400373Y-668373D01*
X+272000Y-540000D01*
X-454756Y+892212D02*
X-20000Y+457456D01*
X-20000Y+430000D01*
D11*
X-89391Y+655133D02*
X-412927Y+978669D01*
D13*
X-812800Y-749300D03*
X+255689Y-708030D03*
X-718519Y+3112161D03*
X-660400Y-1041400D03*
X+978136Y+2419115D03*
X+1254478Y+3412772D03*
D14*
X+343914Y+4387682D03*
X+372000Y-287618D03*
X+498696Y-1020847D03*
X-38100Y-378149D03*
X+1034748Y+1799670D03*
X+2162934Y+3979719D03*
X-1720032Y-1307778D03*
D13*
X+2664554Y+2791493D03*
X+1606898Y+2031712D03*
D14*
X+335742Y-1353970D03*
X+272000Y-540000D03*
X-454756Y+892212D03*
X-20000Y+430000D03*
X-89391Y+655133D03*
X-412927Y+978669D03*
D12*
X+3002940Y+5869861D02*
X+2856262Y+6016539D01*
X+2643738Y+6016539D01*
X+2493461Y+5866262D01*
X+2493461Y+5653738D01*
X+2643738Y+5503461D01*
X+2856262Y+5503461D01*
X+3002940Y+5650139D01*
X+3002940Y-2830139D01*
X+2856262Y-2683461D01*
X+2643738Y-2683461D01*
X+2493461Y-2833738D01*
X+2493461Y-3046262D01*
X+2643738Y-3196539D01*
X+2856262Y-3196539D01*
X+3002940Y-3049861D01*
X+3002940Y-3238240D01*
X-1883540Y-3238240D01*
X-1883540Y-558799D01*
X-1437978Y-558799D01*
X-1636891Y-757712D01*
X-1636891Y-1438182D01*
X-1437496Y-1637577D01*
X-1437496Y-1709056D01*
X-1444751Y-1701801D01*
X-1644649Y-1701801D01*
X-1785999Y-1843151D01*
X-1785999Y-2043049D01*
X-1644649Y-2184399D01*
X-1444751Y-2184399D01*
X-1437496Y-2177144D01*
X-1437496Y-2392213D01*
X-1342086Y-2487623D01*
X+2438892Y-2487623D01*
X+2479480Y-2528211D01*
X+2667636Y-2450273D01*
X+2667636Y-2184399D01*
X+2847849Y-2184399D01*
X+2989199Y-2043049D01*
X+2989199Y-1843151D01*
X+2847849Y-1701801D01*
X+2667636Y-1701801D01*
X+2667636Y-409035D01*
X+2988299Y-88372D01*
X+2988299Y+1312565D01*
X+2625399Y+1675465D01*
X+2625399Y+1694499D01*
X+2193601Y+1694499D01*
X+2193601Y+1389701D01*
X+2480115Y+1389701D01*
X+2683501Y+1186315D01*
X+2683501Y+37878D01*
X+2362838Y-282785D01*
X+2362838Y-495590D01*
X+2335949Y-468701D01*
X+2136051Y-468701D01*
X+1994701Y-610051D01*
X+1994701Y-809949D01*
X+2136051Y-951299D01*
X+2335949Y-951299D01*
X+2362838Y-924410D01*
X+2362838Y-1724790D01*
X+2339849Y-1701801D01*
X+2139951Y-1701801D01*
X+1998601Y-1843151D01*
X+1998601Y-2043049D01*
X+2138377Y-2182825D01*
X+1701723Y-2182825D01*
X+1841499Y-2043049D01*
X+1841499Y-1843151D01*
X+1700149Y-1701801D01*
X+1500251Y-1701801D01*
X+1358901Y-1843151D01*
X+1358901Y-2043049D01*
X+1498677Y-2182825D01*
X+1193723Y-2182825D01*
X+1333499Y-2043049D01*
X+1333499Y-1843151D01*
X+1192149Y-1701801D01*
X+992251Y-1701801D01*
X+850901Y-1843151D01*
X+850901Y-2043049D01*
X+990677Y-2182825D01*
X+685723Y-2182825D01*
X+825499Y-2043049D01*
X+825499Y-1843151D01*
X+684149Y-1701801D01*
X+625695Y-1701801D01*
X+625695Y-968242D01*
X+551301Y-893848D01*
X+462741Y-893848D01*
X+462741Y-831356D01*
X+527372Y-766725D01*
X+527372Y-615770D01*
X+470401Y-558799D01*
X+914399Y-558799D01*
X+914399Y+2031633D01*
X+1141731Y+1804301D01*
X+1141731Y+1739899D01*
X+1085993Y+1739899D01*
X+1113248Y+1767154D01*
X+1113248Y+1832186D01*
X+1067264Y+1878170D01*
X+1002232Y+1878170D01*
X+956248Y+1832186D01*
X+956248Y+1767154D01*
X+1002232Y+1721170D01*
X+1054101Y+1721170D01*
X+1054101Y+1358901D01*
X+1879977Y+1358901D01*
X+1359275Y+838199D01*
X+1233551Y+838199D01*
X+1092201Y+696849D01*
X+1092201Y+496951D01*
X+1233551Y+355601D01*
X+1433449Y+355601D01*
X+1574799Y+496951D01*
X+1574799Y+622675D01*
X+1600201Y+648077D01*
X+1600201Y+496951D01*
X+1741551Y+355601D01*
X+1941449Y+355601D01*
X+2082799Y+496951D01*
X+2082799Y+696849D01*
X+1941449Y+838199D01*
X+1790323Y+838199D01*
X+2187882Y+1235758D01*
X+2187882Y+2094837D01*
X+2098608Y+2184111D01*
X+1543772Y+2184111D01*
X+1454499Y+2094838D01*
X+1454499Y+1968586D01*
X+1543772Y+1879313D01*
X+1883084Y+1879313D01*
X+1883084Y+1739899D01*
X+1347469Y+1739899D01*
X+1347469Y+1889519D01*
X+1075125Y+2161863D01*
X+1075125Y+2336500D01*
X+1105135Y+2366510D01*
X+1105135Y+2471720D01*
X+1030741Y+2546114D01*
X+925531Y+2546114D01*
X+914399Y+2534982D01*
X+914399Y+5130799D01*
X+355601Y+5130799D01*
X+355601Y+4514680D01*
X+291310Y+4514680D01*
X+145002Y+4368372D01*
X+145002Y-242604D01*
X+315400Y-413002D01*
X+219396Y-413002D01*
X+145002Y-487396D01*
X+145002Y-592604D01*
X+168256Y-615858D01*
X+128690Y-655425D01*
X+128690Y-655427D01*
X-147699Y-931816D01*
X-147699Y-1728851D01*
X-261999Y-1843151D01*
X-261999Y-2043049D01*
X-122223Y-2182825D01*
X-427177Y-2182825D01*
X-287401Y-2043049D01*
X-287401Y-1843151D01*
X-428751Y-1701801D01*
X-628649Y-1701801D01*
X-769999Y-1843151D01*
X-769999Y-2043049D01*
X-630223Y-2182825D01*
X-935177Y-2182825D01*
X-795401Y-2043049D01*
X-795401Y-1843151D01*
X-909701Y-1728851D01*
X-909701Y-1025803D01*
X-845518Y-961620D01*
X-845518Y-1035884D01*
X-787399Y-1094003D01*
X-787399Y-1094005D01*
X-713005Y-1168399D01*
X-607795Y-1168399D01*
X-533401Y-1094005D01*
X-533401Y-988795D01*
X-591520Y-930676D01*
X-591520Y+3164766D01*
X-665914Y+3239160D01*
X-771124Y+3239160D01*
X-845518Y+3164766D01*
X-845518Y-622301D01*
X-865405Y-622301D01*
X-939799Y-696695D01*
X-939799Y-696697D01*
X-1163699Y-920597D01*
X-1163699Y-1480326D01*
X-1332093Y-1311932D01*
X-1332093Y-883962D01*
X-1107601Y-659470D01*
X-1107601Y-76875D01*
X-1209875Y+25399D01*
X-1371601Y+25399D01*
X-1371601Y+5130799D01*
X-1883540Y+5130799D01*
X-1883540Y+6038240D01*
X+3002940Y+6038240D01*
X+3002940Y+5869861D01*
X+2625399Y+373701D02*
X+2625399Y+119701D01*
X+2193601Y+119701D01*
X+2193601Y+678499D01*
X+2625399Y+678499D01*
X+2625399Y+373701D01*
X+2193601Y+881701D02*
X+2193601Y+1186499D01*
X+2625399Y+1186499D01*
X+2625399Y+881701D01*
X+2193601Y+881701D01*
X+2829599Y+4446049D02*
X+2829599Y+4246151D01*
X+2688249Y+4104801D01*
X+2526603Y+4104801D01*
X+2264523Y+3842721D01*
X+2110329Y+3842721D01*
X+2035935Y+3917115D01*
X+2035935Y+4032324D01*
X+2108412Y+4104801D01*
X+1980351Y+4104801D01*
X+1839001Y+4246151D01*
X+1839001Y+4446049D01*
X+1980351Y+4587399D01*
X+2180249Y+4587399D01*
X+2321599Y+4446049D01*
X+2321599Y+4259001D01*
X+2347001Y+4284403D01*
X+2347001Y+4446049D01*
X+2488351Y+4587399D01*
X+2688249Y+4587399D01*
X+2829599Y+4446049D01*
X+1799949Y+2840976D02*
X+1799949Y+2714724D01*
X+1710676Y+2625451D01*
X+1584424Y+2625451D01*
X+1545949Y+2663926D01*
X+1545949Y+2625451D01*
X+1241151Y+2625451D01*
X+1241151Y+2930249D01*
X+1545949Y+2930249D01*
X+1545949Y+2891774D01*
X+1584424Y+2930249D01*
X+1710676Y+2930249D01*
X+1799949Y+2840976D01*
X+1799949Y+3602976D02*
X+1799949Y+3476724D01*
X+1710676Y+3387451D01*
X+1584424Y+3387451D01*
X+1520550Y+3451325D01*
X+1456676Y+3387451D01*
X+1337028Y+3387451D01*
X+1337028Y+3378579D01*
X+1288671Y+3330222D01*
X+1220285Y+3330222D01*
X+1171928Y+3378579D01*
X+1171928Y+3446965D01*
X+1220285Y+3495322D01*
X+1241151Y+3495322D01*
X+1241151Y+3602976D01*
X+1330424Y+3692249D01*
X+1456676Y+3692249D01*
X+1520550Y+3628375D01*
X+1584424Y+3692249D01*
X+1710676Y+3692249D01*
X+1799949Y+3602976D01*
X-1806539Y+5653738D02*
X-1806539Y+5866262D01*
X-1656262Y+6016539D01*
X-1443738Y+6016539D01*
X-1293461Y+5866262D01*
X-1293461Y+5653738D01*
X-1443738Y+5503461D01*
X-1656262Y+5503461D01*
X-1806539Y+5653738D01*
X-1806539Y-3046262D02*
X-1806539Y-2833738D01*
X-1656262Y-2683461D01*
X-1443738Y-2683461D01*
X-1293461Y-2833738D01*
X-1293461Y-3046262D01*
X-1443738Y-3196539D01*
X-1656262Y-3196539D01*
X-1806539Y-3046262D01*
X+1695000Y+5679735D02*
X+1861664Y+5846399D01*
X+2198336Y+5846399D01*
X+2436399Y+5608336D01*
X+2436399Y+5271664D01*
X+2198336Y+5033601D01*
X+1861664Y+5033601D01*
X+1685000Y+5210265D01*
X+1518336Y+5043601D01*
X+1181664Y+5043601D01*
X+943601Y+5281664D01*
X+943601Y+5618336D01*
X+1181664Y+5856399D01*
X+1518336Y+5856399D01*
X+1695000Y+5679735D01*
X+978701Y-809949D02*
X+978701Y-610051D01*
X+1120051Y-468701D01*
X+1319949Y-468701D01*
X+1461299Y-610051D01*
X+1461299Y-809949D01*
X+1319949Y-951299D01*
X+1120051Y-951299D01*
X+978701Y-809949D01*
X+1486701Y-809949D02*
X+1486701Y-610051D01*
X+1628051Y-468701D01*
X+1827949Y-468701D01*
X+1969299Y-610051D01*
X+1969299Y-809949D01*
X+1827949Y-951299D01*
X+1628051Y-951299D01*
X+1486701Y-809949D01*
X-116600Y-410665D02*
X-116600Y-345633D01*
X-70616Y-299649D01*
X-5584Y-299649D01*
X+40400Y-345633D01*
X+40400Y-410665D01*
X-5584Y-456649D01*
X-70616Y-456649D01*
X-116600Y-410665D01*
X-1798532Y-1340294D02*
X-1798532Y-1275262D01*
X-1752548Y-1229278D01*
X-1687516Y-1229278D01*
X-1641532Y-1275262D01*
X-1641532Y-1340294D01*
X-1687516Y-1386278D01*
X-1752548Y-1386278D01*
X-1798532Y-1340294D01*
X+2582004Y+2757300D02*
X+2582004Y+2825686D01*
X+2630361Y+2874043D01*
X+2698747Y+2874043D01*
X+2747104Y+2825686D01*
X+2747104Y+2757300D01*
X+2698747Y+2708943D01*
X+2630361Y+2708943D01*
X+2582004Y+2757300D01*
X-294028Y+1027919D02*
X-294028Y+1005248D01*
X-62812Y+774032D01*
X-40141Y+774032D01*
X+29508Y+704383D01*
X+29508Y+605883D01*
X+20342Y+596716D01*
X+106999Y+510059D01*
X+106999Y+377395D01*
X+32605Y+303001D01*
X-72605Y+303001D01*
X-146999Y+377395D01*
X-146999Y+404853D01*
X-581754Y+839608D01*
X-581754Y+944816D01*
X-531826Y+994744D01*
X-531826Y+1027919D01*
X-462177Y+1097568D01*
X-363677Y+1097568D01*
X-294028Y+1027919D01*
D15*
X-1651000Y-558799D02*
X-1651000Y-381000D01*
X+635000Y-558799D02*
X+635000Y-381000D01*
X+914399Y-381000D02*
X+635000Y-381000D01*
X+914399Y-127000D02*
X+635000Y-127000D01*
X+635000Y+5130799D02*
X+635000Y+4953000D01*
X+355601Y+4953000D02*
X+635000Y+4953000D01*
X+914399Y+4953000D02*
X+635000Y+4953000D01*
X-287401Y-1943100D02*
X-528700Y-1943100D01*
X-769999Y-1943100D02*
X-528700Y-1943100D01*
X-528700Y-1701801D02*
X-528700Y-1943100D01*
X-1785999Y-1943100D02*
X-1544700Y-1943100D01*
X-1544700Y-1701801D02*
X-1544700Y-1943100D01*
X-1544700Y-2184399D02*
X-1544700Y-1943100D01*
X+2409500Y+881701D02*
X+2409500Y+1034100D01*
X+2409500Y+1186499D02*
X+2409500Y+1034100D01*
X+2625399Y+1034100D02*
X+2409500Y+1034100D01*
X+2193601Y+1034100D02*
X+2409500Y+1034100D01*
X+1358901Y-1943100D02*
X+1600200Y-1943100D01*
X+1841499Y-1943100D02*
X+1600200Y-1943100D01*
X+1600200Y-1701801D02*
X+1600200Y-1943100D01*
X+1839001Y+4346100D02*
X+2080300Y+4346100D01*
X+2321599Y+4346100D02*
X+2080300Y+4346100D01*
X+2080300Y+4104801D02*
X+2080300Y+4346100D01*
X+2080300Y+4587399D02*
X+2080300Y+4346100D01*
X+1799949Y+2777850D02*
X+1647550Y+2777850D01*
X+1647550Y+2625451D02*
X+1647550Y+2777850D01*
X+1647550Y+2930249D02*
X+1647550Y+2777850D01*
X+978701Y-710000D02*
X+1220000Y-710000D01*
X+1461299Y-710000D02*
X+1220000Y-710000D01*
X+1220000Y-951299D02*
X+1220000Y-710000D01*
X+1220000Y-468701D02*
X+1220000Y-710000D01*
D16*
X-1651000Y+4953000D03*
X-1651000Y+4699000D03*
X-1651000Y+4445000D03*
X-1651000Y+4191000D03*
X-1651000Y+3937000D03*
X-1651000Y+3683000D03*
X-1651000Y+3429000D03*
X-1651000Y+3175000D03*
X-1651000Y+2921000D03*
X-1651000Y+2667000D03*
X-1651000Y+2413000D03*
X-1651000Y+2159000D03*
X-1651000Y+1905000D03*
X-1651000Y+1651000D03*
X-1651000Y+1397000D03*
X-1651000Y+1143000D03*
X-1651000Y+889000D03*
X-1651000Y+635000D03*
X-1651000Y+381000D03*
X-1651000Y+127000D03*
X-1651000Y-127000D03*
X-1651000Y-381000D03*
X+635000Y-381000D03*
X+635000Y-127000D03*
X+635000Y+127000D03*
X+635000Y+381000D03*
X+635000Y+635000D03*
X+635000Y+889000D03*
X+635000Y+1143000D03*
X+635000Y+1397000D03*
X+635000Y+1651000D03*
X+635000Y+1905000D03*
X+635000Y+2159000D03*
X+635000Y+2413000D03*
X+635000Y+2667000D03*
X+635000Y+2921000D03*
X+635000Y+3175000D03*
X+635000Y+3429000D03*
X+635000Y+3683000D03*
X+635000Y+3937000D03*
X+635000Y+4191000D03*
X+635000Y+4445000D03*
X+635000Y+4699000D03*
X+635000Y+4953000D03*
D17*
X-20700Y-1943100D03*
X-528700Y-1943100D03*
X-1036700Y-1943100D03*
X-1544700Y-1943100D03*
X+2747900Y-1943100D03*
X+2239900Y-1943100D03*
D18*
X+2409500Y+272100D03*
X+2409500Y+526100D03*
X+2409500Y+1034100D03*
X+2409500Y+1542100D03*
D17*
X+584200Y-1943100D03*
X+1092200Y-1943100D03*
X+1600200Y-1943100D03*
X+2080300Y+4346100D03*
X+2588300Y+4346100D03*
X+1333500Y+596900D03*
X+1841500Y+596900D03*
D19*
X+1244600Y+1549400D03*
X+1498600Y+1549400D03*
X+1752600Y+1549400D03*
D70*
X+1393550Y+2777850D03*
D71*
X+1647550Y+2777850D03*
X+1647550Y+3539850D03*
X+1393550Y+3539850D03*
D20*
X-1550000Y+5760000D03*
X+2750000Y+5760000D03*
X-1550000Y-2940000D03*
X+2750000Y-2940000D03*
D21*
X+2030000Y+5440000D03*
X+1350000Y+5450000D03*
D17*
X+1220000Y-710000D03*
X+1728000Y-710000D03*
X+2236000Y-710000D03*
D22*
X-1995300Y-3350000D02*
X+3114700Y-3350000D01*
X+3114700Y+6150000D01*
X-1995300Y+6150000D01*
X-1995300Y-3350000D01*
M02*
