G04 PROTEUS GERBER X2 FILE*
%TF.GenerationSoftware,Labcenter,Proteus,8.13-SP0-Build31525*%
%TF.CreationDate,2024-05-12T14:24:26+00:00*%
%TF.FileFunction,AssemblyDrawing,Bot*%
%TF.FilePolarity,Positive*%
%TF.Part,Single*%
%TF.SameCoordinates,{a0f7e056-3ba2-47e4-9380-b7f19c802b0c}*%
%FSLAX45Y45*%
%MOMM*%
G01*
%TA.AperFunction,Material*%
%ADD52C,0.050000*%
%ADD53C,0.721360*%
%ADD54C,0.107030*%
%ADD55C,0.110370*%
%TA.AperFunction,Profile*%
%ADD22C,0.203200*%
%TD.AperFunction*%
D52*
X-927800Y-1253400D02*
X-927800Y-793400D01*
X-697800Y-793400D01*
X-697800Y-1253400D01*
X-927800Y-1253400D01*
X-762800Y-1023400D02*
X-862800Y-1023400D01*
X-812800Y-973400D02*
X-812800Y-1073400D01*
D53*
X-812800Y-1168400D02*
X-812800Y-1168400D01*
D54*
X-780689Y-817117D02*
X-844911Y-817117D01*
X-844911Y-877325D01*
X-834207Y-889366D01*
X-823504Y-889366D01*
X-812800Y-877325D01*
X-812800Y-817117D01*
X-812800Y-877325D02*
X-802096Y-889366D01*
X-780689Y-889366D01*
X-823504Y-937533D02*
X-844911Y-961616D01*
X-780689Y-961616D01*
X-823504Y-1033866D02*
X-844911Y-1057949D01*
X-780689Y-1057949D01*
D52*
X-534100Y-1251300D02*
X-534100Y-791300D01*
X-304100Y-791300D01*
X-304100Y-1251300D01*
X-534100Y-1251300D01*
X-369100Y-1021300D02*
X-469100Y-1021300D01*
X-419100Y-971300D02*
X-419100Y-1071300D01*
D53*
X-419100Y-1166300D02*
X-419100Y-1166300D01*
D54*
X-386989Y-815017D02*
X-451211Y-815017D01*
X-451211Y-875225D01*
X-440507Y-887266D01*
X-429804Y-887266D01*
X-419100Y-875225D01*
X-419100Y-815017D01*
X-419100Y-875225D02*
X-408396Y-887266D01*
X-386989Y-887266D01*
X-440507Y-923391D02*
X-451211Y-935433D01*
X-451211Y-971558D01*
X-440507Y-983599D01*
X-429804Y-983599D01*
X-419100Y-971558D01*
X-419100Y-935433D01*
X-408396Y-923391D01*
X-386989Y-923391D01*
X-386989Y-983599D01*
X-451211Y-1019724D02*
X-451211Y-1079932D01*
X-440507Y-1079932D01*
X-386989Y-1019724D01*
D52*
X-1334200Y-1253400D02*
X-1334200Y-783400D01*
X-1104200Y-783400D01*
X-1104200Y-1253400D01*
X-1334200Y-1253400D01*
X-1169200Y-1018400D02*
X-1269200Y-1018400D01*
X-1219200Y-968400D02*
X-1219200Y-1068400D01*
D53*
X-1219200Y-1168400D02*
X-1219200Y-1168400D01*
D55*
X-1197126Y-931782D02*
X-1186089Y-919366D01*
X-1186089Y-882116D01*
X-1208163Y-857283D01*
X-1230237Y-857283D01*
X-1252311Y-882116D01*
X-1252311Y-919366D01*
X-1241274Y-931782D01*
X-1230237Y-981449D02*
X-1252311Y-1006282D01*
X-1186089Y-1006282D01*
D52*
X-153100Y-1266100D02*
X-153100Y-796100D01*
X+76900Y-796100D01*
X+76900Y-1266100D01*
X-153100Y-1266100D01*
X+11900Y-1031100D02*
X-88100Y-1031100D01*
X-38100Y-981100D02*
X-38100Y-1081100D01*
D53*
X-38100Y-1181100D02*
X-38100Y-1181100D01*
D55*
X-16026Y-944482D02*
X-4989Y-932066D01*
X-4989Y-894816D01*
X-27063Y-869983D01*
X-49137Y-869983D01*
X-71211Y-894816D01*
X-71211Y-932066D01*
X-60174Y-944482D01*
X-60174Y-981732D02*
X-71211Y-994149D01*
X-71211Y-1031399D01*
X-60174Y-1043815D01*
X-49137Y-1043815D01*
X-38100Y-1031399D01*
X-38100Y-994149D01*
X-27063Y-981732D01*
X-4989Y-981732D01*
X-4989Y-1043815D01*
D52*
X+215200Y-1266100D02*
X+215200Y-806100D01*
X+445200Y-806100D01*
X+445200Y-1266100D01*
X+215200Y-1266100D01*
X+380200Y-1036100D02*
X+280200Y-1036100D01*
X+330200Y-986100D02*
X+330200Y-1086100D01*
D53*
X+330200Y-1181100D02*
X+330200Y-1181100D01*
D54*
X+362311Y-829817D02*
X+298089Y-829817D01*
X+298089Y-890025D01*
X+308793Y-902066D01*
X+319496Y-902066D01*
X+330200Y-890025D01*
X+330200Y-829817D01*
X+330200Y-890025D02*
X+340904Y-902066D01*
X+362311Y-902066D01*
X+319496Y-950233D02*
X+298089Y-974316D01*
X+362311Y-974316D01*
X+351607Y-1022483D02*
X+308793Y-1022483D01*
X+298089Y-1034524D01*
X+298089Y-1082691D01*
X+308793Y-1094732D01*
X+351607Y-1094732D01*
X+362311Y-1082691D01*
X+362311Y-1034524D01*
X+351607Y-1022483D01*
X+362311Y-1022483D02*
X+298089Y-1094732D01*
D52*
X+583500Y-1266100D02*
X+583500Y-806100D01*
X+813500Y-806100D01*
X+813500Y-1266100D01*
X+583500Y-1266100D01*
X+748500Y-1036100D02*
X+648500Y-1036100D01*
X+698500Y-986100D02*
X+698500Y-1086100D01*
D53*
X+698500Y-1181100D02*
X+698500Y-1181100D01*
D54*
X+730611Y-829817D02*
X+666389Y-829817D01*
X+666389Y-890025D01*
X+677093Y-902066D01*
X+687796Y-902066D01*
X+698500Y-890025D01*
X+698500Y-829817D01*
X+698500Y-890025D02*
X+709204Y-902066D01*
X+730611Y-902066D01*
X+677093Y-938191D02*
X+666389Y-950233D01*
X+666389Y-986358D01*
X+677093Y-998399D01*
X+687796Y-998399D01*
X+698500Y-986358D01*
X+698500Y-950233D01*
X+709204Y-938191D01*
X+730611Y-938191D01*
X+730611Y-998399D01*
X+677093Y-1094732D02*
X+666389Y-1082691D01*
X+666389Y-1046566D01*
X+677093Y-1034524D01*
X+719907Y-1034524D01*
X+730611Y-1046566D01*
X+730611Y-1082691D01*
X+719907Y-1094732D01*
X+709204Y-1094732D01*
X+698500Y-1082691D01*
X+698500Y-1034524D01*
D52*
X+2054650Y+3396250D02*
X+2054650Y+2936250D01*
X+1824650Y+2936250D01*
X+1824650Y+3396250D01*
X+2054650Y+3396250D01*
X+1889650Y+3166250D02*
X+1989650Y+3166250D01*
X+1939650Y+3116250D02*
X+1939650Y+3216250D01*
D53*
X+1939650Y+3311250D02*
X+1939650Y+3311250D01*
D54*
X+1971761Y+3248965D02*
X+1907539Y+3248965D01*
X+1907539Y+3188757D01*
X+1918243Y+3176716D01*
X+1928946Y+3176716D01*
X+1939650Y+3188757D01*
X+1939650Y+3248965D01*
X+1939650Y+3188757D02*
X+1950354Y+3176716D01*
X+1971761Y+3176716D01*
X+1928946Y+3128549D02*
X+1907539Y+3104466D01*
X+1971761Y+3104466D01*
X+1918243Y+3044258D02*
X+1907539Y+3032216D01*
X+1907539Y+2996091D01*
X+1918243Y+2984050D01*
X+1928946Y+2984050D01*
X+1939650Y+2996091D01*
X+1939650Y+3032216D01*
X+1950354Y+3044258D01*
X+1971761Y+3044258D01*
X+1971761Y+2984050D01*
D52*
X+1012750Y+2442550D02*
X+1472750Y+2442550D01*
X+1472750Y+2212550D01*
X+1012750Y+2212550D01*
X+1012750Y+2442550D01*
X+1242750Y+2277550D02*
X+1242750Y+2377550D01*
X+1292750Y+2327550D02*
X+1192750Y+2327550D01*
D53*
X+1097750Y+2327550D02*
X+1097750Y+2327550D01*
D54*
X+1449033Y+2295439D02*
X+1449033Y+2359661D01*
X+1388825Y+2359661D01*
X+1376784Y+2348957D01*
X+1376784Y+2338254D01*
X+1388825Y+2327550D01*
X+1449033Y+2327550D01*
X+1388825Y+2327550D02*
X+1376784Y+2316846D01*
X+1376784Y+2295439D01*
X+1328617Y+2338254D02*
X+1304534Y+2359661D01*
X+1304534Y+2295439D01*
X+1184118Y+2316846D02*
X+1256367Y+2316846D01*
X+1208201Y+2359661D01*
X+1208201Y+2295439D01*
D52*
X+1961150Y+2218350D02*
X+1501150Y+2218350D01*
X+1501150Y+2448350D01*
X+1961150Y+2448350D01*
X+1961150Y+2218350D01*
X+1731150Y+2383350D02*
X+1731150Y+2283350D01*
X+1681150Y+2333350D02*
X+1781150Y+2333350D01*
D53*
X+1876150Y+2333350D02*
X+1876150Y+2333350D01*
D54*
X+1813865Y+2301239D02*
X+1813865Y+2365461D01*
X+1753657Y+2365461D01*
X+1741616Y+2354757D01*
X+1741616Y+2344054D01*
X+1753657Y+2333350D01*
X+1813865Y+2333350D01*
X+1753657Y+2333350D02*
X+1741616Y+2322646D01*
X+1741616Y+2301239D01*
X+1693449Y+2344054D02*
X+1669366Y+2365461D01*
X+1669366Y+2301239D01*
X+1609158Y+2354757D02*
X+1597116Y+2365461D01*
X+1560991Y+2365461D01*
X+1548950Y+2354757D01*
X+1548950Y+2344054D01*
X+1560991Y+2333350D01*
X+1548950Y+2322646D01*
X+1548950Y+2311943D01*
X+1560991Y+2301239D01*
X+1597116Y+2301239D01*
X+1609158Y+2311943D01*
X+1585075Y+2333350D02*
X+1560991Y+2333350D01*
D22*
X-1995300Y-3350000D02*
X+3114700Y-3350000D01*
X+3114700Y+6150000D01*
X-1995300Y+6150000D01*
X-1995300Y-3350000D01*
M02*
