G04 PROTEUS GERBER X2 FILE*
%TF.GenerationSoftware,Labcenter,Proteus,8.13-SP0-Build31525*%
%TF.CreationDate,2024-05-12T14:24:26+00:00*%
%TF.FileFunction,Legend,Top*%
%TF.FilePolarity,Positive*%
%TF.Part,Single*%
%TF.SameCoordinates,{a0f7e056-3ba2-47e4-9380-b7f19c802b0c}*%
%FSLAX45Y45*%
%MOMM*%
G01*
%TA.AperFunction,Material*%
%ADD26C,0.203200*%
%TA.AperFunction,Profile*%
%ADD22C,0.203200*%
%TD.AperFunction*%
D26*
X-1905000Y-1270000D02*
X+889000Y-1270000D01*
X+889000Y+5080000D01*
X-1905000Y+5080000D01*
X-1905000Y-1270000D01*
X-1117600Y+4622800D02*
X-1270000Y+4622800D01*
X-1270000Y+4775200D01*
X-1117600Y+4775200D01*
X-1270000Y+4699000D02*
X-1168400Y+4699000D01*
X-1066800Y+4648200D02*
X-1041400Y+4622800D01*
X-939800Y+4622800D01*
X-914400Y+4648200D01*
X-914400Y+4673600D01*
X-939800Y+4699000D01*
X-1041400Y+4699000D01*
X-1066800Y+4724400D01*
X-1066800Y+4749800D01*
X-1041400Y+4775200D01*
X-939800Y+4775200D01*
X-914400Y+4749800D01*
X-863600Y+4622800D02*
X-863600Y+4775200D01*
X-736600Y+4775200D01*
X-711200Y+4749800D01*
X-711200Y+4724400D01*
X-736600Y+4699000D01*
X-863600Y+4699000D01*
X-635000Y+4749800D02*
X-609600Y+4775200D01*
X-533400Y+4775200D01*
X-508000Y+4749800D01*
X-508000Y+4724400D01*
X-533400Y+4699000D01*
X-508000Y+4673600D01*
X-508000Y+4648200D01*
X-533400Y+4622800D01*
X-609600Y+4622800D01*
X-635000Y+4648200D01*
X-584200Y+4699000D02*
X-533400Y+4699000D01*
X-431800Y+4749800D02*
X-406400Y+4775200D01*
X-330200Y+4775200D01*
X-304800Y+4749800D01*
X-304800Y+4724400D01*
X-330200Y+4699000D01*
X-406400Y+4699000D01*
X-431800Y+4673600D01*
X-431800Y+4622800D01*
X-304800Y+4622800D01*
X-228600Y+4699000D02*
X-101600Y+4699000D01*
X-50800Y+4648200D02*
X-25400Y+4622800D01*
X+76200Y+4622800D01*
X+101600Y+4648200D01*
X+101600Y+4673600D01*
X+76200Y+4699000D01*
X-25400Y+4699000D01*
X-50800Y+4724400D01*
X-50800Y+4749800D01*
X-25400Y+4775200D01*
X+76200Y+4775200D01*
X+101600Y+4749800D01*
X+177800Y+4749800D02*
X+203200Y+4775200D01*
X+279400Y+4775200D01*
X+304800Y+4749800D01*
X+304800Y+4724400D01*
X+279400Y+4699000D01*
X+304800Y+4673600D01*
X+304800Y+4648200D01*
X+279400Y+4622800D01*
X+203200Y+4622800D01*
X+177800Y+4648200D01*
X+228600Y+4699000D02*
X+279400Y+4699000D01*
X-920750Y+5120640D02*
X-1016000Y+5120640D01*
X-1016000Y+5212080D01*
X-920750Y+5212080D01*
X-1016000Y+5166360D02*
X-952500Y+5166360D01*
X-889000Y+5135880D02*
X-873125Y+5120640D01*
X-809625Y+5120640D01*
X-793750Y+5135880D01*
X-793750Y+5151120D01*
X-809625Y+5166360D01*
X-873125Y+5166360D01*
X-889000Y+5181600D01*
X-889000Y+5196840D01*
X-873125Y+5212080D01*
X-809625Y+5212080D01*
X-793750Y+5196840D01*
X-762000Y+5120640D02*
X-762000Y+5212080D01*
X-682625Y+5212080D01*
X-666750Y+5196840D01*
X-666750Y+5181600D01*
X-682625Y+5166360D01*
X-762000Y+5166360D01*
X-619125Y+5196840D02*
X-603250Y+5212080D01*
X-555625Y+5212080D01*
X-539750Y+5196840D01*
X-539750Y+5181600D01*
X-555625Y+5166360D01*
X-539750Y+5151120D01*
X-539750Y+5135880D01*
X-555625Y+5120640D01*
X-603250Y+5120640D01*
X-619125Y+5135880D01*
X-587375Y+5166360D02*
X-555625Y+5166360D01*
X-492125Y+5196840D02*
X-476250Y+5212080D01*
X-428625Y+5212080D01*
X-412750Y+5196840D01*
X-412750Y+5181600D01*
X-428625Y+5166360D01*
X-476250Y+5166360D01*
X-492125Y+5151120D01*
X-492125Y+5120640D01*
X-412750Y+5120640D01*
X-365125Y+5166360D02*
X-285750Y+5166360D01*
X-254000Y+5135880D02*
X-238125Y+5120640D01*
X-174625Y+5120640D01*
X-158750Y+5135880D01*
X-158750Y+5151120D01*
X-174625Y+5166360D01*
X-238125Y+5166360D01*
X-254000Y+5181600D01*
X-254000Y+5196840D01*
X-238125Y+5212080D01*
X-174625Y+5212080D01*
X-158750Y+5196840D01*
X-111125Y+5196840D02*
X-95250Y+5212080D01*
X-47625Y+5212080D01*
X-31750Y+5196840D01*
X-31750Y+5181600D01*
X-47625Y+5166360D01*
X-31750Y+5151120D01*
X-31750Y+5135880D01*
X-47625Y+5120640D01*
X-95250Y+5120640D01*
X-111125Y+5135880D01*
X-79375Y+5166360D02*
X-47625Y+5166360D01*
X+233300Y-2451100D02*
X+233300Y-1435100D01*
X-1798700Y-2451100D02*
X-1798700Y-1435100D01*
X+233300Y-1435100D01*
X+233300Y-2451100D02*
X-1798700Y-2451100D01*
X-1708200Y-1552700D02*
X-1708200Y-1567940D01*
X-1692325Y-1583180D01*
X-1628825Y-1583180D01*
X-1612950Y-1567940D01*
X-1612950Y-1491740D01*
X-1485950Y-1552700D02*
X-1581200Y-1552700D01*
X-1517700Y-1491740D01*
X-1517700Y-1583180D01*
X-1327200Y-1583180D02*
X-1327200Y-1522220D01*
X-1295450Y-1491740D01*
X-1263700Y-1491740D01*
X-1231950Y-1522220D01*
X-1231950Y-1583180D01*
X-1327200Y-1552700D02*
X-1231950Y-1552700D01*
X-1200200Y-1583180D02*
X-1200200Y-1491740D01*
X-1136700Y-1491740D01*
X-1104950Y-1522220D01*
X-1104950Y-1552700D01*
X-1136700Y-1583180D01*
X-1200200Y-1583180D01*
X-977950Y-1567940D02*
X-993825Y-1583180D01*
X-1041450Y-1583180D01*
X-1073200Y-1552700D01*
X-1073200Y-1522220D01*
X-1041450Y-1491740D01*
X-993825Y-1491740D01*
X-977950Y-1506980D01*
X-803325Y-1491740D02*
X-739825Y-1491740D01*
X-771575Y-1491740D02*
X-771575Y-1583180D01*
X-803325Y-1583180D02*
X-739825Y-1583180D01*
X-692200Y-1583180D02*
X-692200Y-1491740D01*
X-596950Y-1583180D01*
X-596950Y-1491740D01*
X-565200Y-1583180D02*
X-565200Y-1491740D01*
X-485825Y-1491740D01*
X-469950Y-1506980D01*
X-469950Y-1522220D01*
X-485825Y-1537460D01*
X-565200Y-1537460D01*
X-438200Y-1491740D02*
X-438200Y-1567940D01*
X-422325Y-1583180D01*
X-358825Y-1583180D01*
X-342950Y-1567940D01*
X-342950Y-1491740D01*
X-311200Y-1491740D02*
X-215950Y-1491740D01*
X-263575Y-1491740D02*
X-263575Y-1583180D01*
X-184200Y-1567940D02*
X-168325Y-1583180D01*
X-104825Y-1583180D01*
X-88950Y-1567940D01*
X-88950Y-1552700D01*
X-104825Y-1537460D01*
X-168325Y-1537460D01*
X-184200Y-1522220D01*
X-184200Y-1506980D01*
X-168325Y-1491740D01*
X-104825Y-1491740D01*
X-88950Y-1506980D01*
X+3001900Y-2451100D02*
X+3001900Y-1435100D01*
X+1985900Y-2451100D02*
X+1985900Y-1435100D01*
X+3001900Y-1435100D02*
X+1985900Y-1435100D01*
X+3001900Y-2451100D02*
X+1985900Y-2451100D01*
X+2112900Y-1652700D02*
X+2112900Y-1667940D01*
X+2128775Y-1683180D01*
X+2192275Y-1683180D01*
X+2208150Y-1667940D01*
X+2208150Y-1591740D01*
X+2335150Y-1591740D02*
X+2255775Y-1591740D01*
X+2255775Y-1622220D01*
X+2319275Y-1622220D01*
X+2335150Y-1637460D01*
X+2335150Y-1667940D01*
X+2319275Y-1683180D01*
X+2271650Y-1683180D01*
X+2255775Y-1667940D01*
X+2525650Y-1622220D02*
X+2557400Y-1591740D01*
X+2557400Y-1683180D01*
X+2636775Y-1606980D02*
X+2652650Y-1591740D01*
X+2700275Y-1591740D01*
X+2716150Y-1606980D01*
X+2716150Y-1622220D01*
X+2700275Y-1637460D01*
X+2652650Y-1637460D01*
X+2636775Y-1652700D01*
X+2636775Y-1683180D01*
X+2716150Y-1683180D01*
X+2747900Y-1591740D02*
X+2747900Y-1637460D01*
X+2795525Y-1683180D01*
X+2843150Y-1637460D01*
X+2843150Y-1591740D01*
X+2649500Y-2636800D02*
X+2681250Y-2636800D01*
X+2681250Y-2687600D01*
X+2617750Y-2687600D01*
X+2586000Y-2636800D01*
X+2586000Y-2586000D01*
X+2617750Y-2535200D01*
X+2665375Y-2535200D01*
X+2681250Y-2560600D01*
X+2713000Y-2687600D02*
X+2713000Y-2586000D01*
X+2713000Y-2611400D02*
X+2728875Y-2586000D01*
X+2792375Y-2586000D01*
X+2808250Y-2611400D01*
X+2808250Y-2687600D01*
X+2935250Y-2611400D02*
X+2919375Y-2586000D01*
X+2855875Y-2586000D01*
X+2840000Y-2611400D01*
X+2840000Y-2662200D01*
X+2855875Y-2687600D01*
X+2919375Y-2687600D01*
X+2935250Y-2662200D01*
X+2935250Y-2687600D02*
X+2935250Y-2535200D01*
X+2038300Y-2522500D02*
X+2038300Y-2598700D01*
X+2085925Y-2674900D01*
X+2133550Y-2598700D01*
X+2133550Y-2522500D01*
X+2212925Y-2573300D02*
X+2212925Y-2674900D01*
X+2212925Y-2522500D02*
X+2212925Y-2522500D01*
X+2292300Y-2674900D02*
X+2292300Y-2573300D01*
X+2292300Y-2598700D02*
X+2308175Y-2573300D01*
X+2371675Y-2573300D01*
X+2387550Y-2598700D01*
X+2387550Y-2674900D01*
X+2314420Y+54100D02*
X+3014420Y+54100D01*
X+3014420Y+2014100D01*
X+2314420Y+2014100D01*
X+2314420Y+54100D01*
X+2862700Y+284100D02*
X+2710300Y+284100D01*
X+2710300Y+411100D01*
X+2735700Y+436500D01*
X+2761100Y+436500D01*
X+2786500Y+411100D01*
X+2811900Y+436500D01*
X+2837300Y+436500D01*
X+2862700Y+411100D01*
X+2862700Y+284100D01*
X+2786500Y+284100D02*
X+2786500Y+411100D01*
X+2761100Y+538100D02*
X+2710300Y+588900D01*
X+2862700Y+588900D01*
X+2735700Y+715900D02*
X+2710300Y+741300D01*
X+2710300Y+817500D01*
X+2735700Y+842900D01*
X+2761100Y+842900D01*
X+2786500Y+817500D01*
X+2786500Y+741300D01*
X+2811900Y+715900D01*
X+2862700Y+715900D01*
X+2862700Y+842900D01*
X+2837300Y+893700D02*
X+2735700Y+893700D01*
X+2710300Y+919100D01*
X+2710300Y+1020700D01*
X+2735700Y+1046100D01*
X+2837300Y+1046100D01*
X+2862700Y+1020700D01*
X+2862700Y+919100D01*
X+2837300Y+893700D01*
X+2862700Y+893700D02*
X+2710300Y+1046100D01*
X+2710300Y+1249300D02*
X+2710300Y+1122300D01*
X+2761100Y+1122300D01*
X+2761100Y+1223900D01*
X+2786500Y+1249300D01*
X+2837300Y+1249300D01*
X+2862700Y+1223900D01*
X+2862700Y+1147700D01*
X+2837300Y+1122300D01*
X+2735700Y+1528700D02*
X+2710300Y+1554100D01*
X+2710300Y+1630300D01*
X+2735700Y+1655700D01*
X+2761100Y+1655700D01*
X+2786500Y+1630300D01*
X+2786500Y+1554100D01*
X+2811900Y+1528700D01*
X+2862700Y+1528700D01*
X+2862700Y+1655700D01*
X+2710300Y+1706500D02*
X+2862700Y+1706500D01*
X+2786500Y+1782700D01*
X+2862700Y+1858900D01*
X+2710300Y+1858900D01*
X+2273780Y+335600D02*
X+2182340Y+335600D01*
X+2182340Y+414975D01*
X+2197580Y+430850D01*
X+2212820Y+430850D01*
X+2228060Y+414975D01*
X+2243300Y+430850D01*
X+2258540Y+430850D01*
X+2273780Y+414975D01*
X+2273780Y+335600D01*
X+2228060Y+335600D02*
X+2228060Y+414975D01*
X+2212820Y+494350D02*
X+2182340Y+526100D01*
X+2273780Y+526100D01*
X+2197580Y+605475D02*
X+2182340Y+621350D01*
X+2182340Y+668975D01*
X+2197580Y+684850D01*
X+2212820Y+684850D01*
X+2228060Y+668975D01*
X+2228060Y+621350D01*
X+2243300Y+605475D01*
X+2273780Y+605475D01*
X+2273780Y+684850D01*
X+2258540Y+716600D02*
X+2197580Y+716600D01*
X+2182340Y+732475D01*
X+2182340Y+795975D01*
X+2197580Y+811850D01*
X+2258540Y+811850D01*
X+2273780Y+795975D01*
X+2273780Y+732475D01*
X+2258540Y+716600D01*
X+2273780Y+716600D02*
X+2182340Y+811850D01*
X+2182340Y+938850D02*
X+2182340Y+859475D01*
X+2212820Y+859475D01*
X+2212820Y+922975D01*
X+2228060Y+938850D01*
X+2258540Y+938850D01*
X+2273780Y+922975D01*
X+2273780Y+875350D01*
X+2258540Y+859475D01*
X+2273780Y+1192850D02*
X+2273780Y+1097600D01*
X+2182340Y+1097600D01*
X+2182340Y+1192850D01*
X+2228060Y+1097600D02*
X+2228060Y+1161100D01*
X+2258540Y+1224600D02*
X+2273780Y+1240475D01*
X+2273780Y+1303975D01*
X+2258540Y+1319850D01*
X+2243300Y+1319850D01*
X+2228060Y+1303975D01*
X+2228060Y+1240475D01*
X+2212820Y+1224600D01*
X+2197580Y+1224600D01*
X+2182340Y+1240475D01*
X+2182340Y+1303975D01*
X+2197580Y+1319850D01*
X+2273780Y+1351600D02*
X+2182340Y+1351600D01*
X+2182340Y+1430975D01*
X+2197580Y+1446850D01*
X+2212820Y+1446850D01*
X+2228060Y+1430975D01*
X+2228060Y+1351600D01*
X+2197580Y+1494475D02*
X+2182340Y+1510350D01*
X+2182340Y+1557975D01*
X+2197580Y+1573850D01*
X+2212820Y+1573850D01*
X+2228060Y+1557975D01*
X+2243300Y+1573850D01*
X+2258540Y+1573850D01*
X+2273780Y+1557975D01*
X+2273780Y+1510350D01*
X+2258540Y+1494475D01*
X+2228060Y+1526225D02*
X+2228060Y+1557975D01*
X+2197580Y+1621475D02*
X+2182340Y+1637350D01*
X+2182340Y+1684975D01*
X+2197580Y+1700850D01*
X+2212820Y+1700850D01*
X+2228060Y+1684975D01*
X+2228060Y+1637350D01*
X+2243300Y+1621475D01*
X+2273780Y+1621475D01*
X+2273780Y+1700850D01*
X+72700Y-2554300D02*
X+47300Y-2528900D01*
X-28900Y-2528900D01*
X-54300Y-2554300D01*
X-54300Y-2655900D01*
X-28900Y-2681300D01*
X+47300Y-2681300D01*
X+72700Y-2655900D01*
X+72700Y-2630500D01*
X+47300Y-2605100D01*
X-54300Y-2605100D01*
X-927300Y-2528900D02*
X-1054300Y-2528900D01*
X-1054300Y-2579700D01*
X-952700Y-2579700D01*
X-927300Y-2605100D01*
X-927300Y-2655900D01*
X-952700Y-2681300D01*
X-1028900Y-2681300D01*
X-1054300Y-2655900D01*
X-1716200Y-2630500D02*
X-1684450Y-2630500D01*
X-1684450Y-2681300D01*
X-1747950Y-2681300D01*
X-1779700Y-2630500D01*
X-1779700Y-2579700D01*
X-1747950Y-2528900D01*
X-1700325Y-2528900D01*
X-1684450Y-2554300D01*
X-1652700Y-2681300D02*
X-1652700Y-2528900D01*
X-1557450Y-2681300D01*
X-1557450Y-2528900D01*
X-1525700Y-2681300D02*
X-1525700Y-2528900D01*
X-1462200Y-2528900D01*
X-1430450Y-2579700D01*
X-1430450Y-2630500D01*
X-1462200Y-2681300D01*
X-1525700Y-2681300D01*
X-616200Y-2630500D02*
X-584450Y-2630500D01*
X-584450Y-2681300D01*
X-647950Y-2681300D01*
X-679700Y-2630500D01*
X-679700Y-2579700D01*
X-647950Y-2528900D01*
X-600325Y-2528900D01*
X-584450Y-2554300D01*
X-552700Y-2681300D02*
X-552700Y-2528900D01*
X-457450Y-2681300D01*
X-457450Y-2528900D01*
X-425700Y-2681300D02*
X-425700Y-2528900D01*
X-362200Y-2528900D01*
X-330450Y-2579700D01*
X-330450Y-2630500D01*
X-362200Y-2681300D01*
X-425700Y-2681300D01*
X+330200Y-1435100D02*
X+330200Y-2451100D01*
X+1854200Y-1435100D02*
X+1854200Y-2451100D01*
X+330200Y-2451100D02*
X+1854200Y-2451100D01*
X+1854200Y-1435100D02*
X+330200Y-1435100D01*
X+609600Y-1579880D02*
X+609600Y-1595120D01*
X+625475Y-1610360D01*
X+688975Y-1610360D01*
X+704850Y-1595120D01*
X+704850Y-1518920D01*
X+752475Y-1534160D02*
X+768350Y-1518920D01*
X+815975Y-1518920D01*
X+831850Y-1534160D01*
X+831850Y-1549400D01*
X+815975Y-1564640D01*
X+768350Y-1564640D01*
X+752475Y-1579880D01*
X+752475Y-1610360D01*
X+831850Y-1610360D01*
X+990600Y-1610360D02*
X+990600Y-1518920D01*
X+1069975Y-1518920D01*
X+1085850Y-1534160D01*
X+1085850Y-1549400D01*
X+1069975Y-1564640D01*
X+990600Y-1564640D01*
X+1117600Y-1518920D02*
X+1117600Y-1595120D01*
X+1133475Y-1610360D01*
X+1196975Y-1610360D01*
X+1212850Y-1595120D01*
X+1212850Y-1518920D01*
X+1244600Y-1610360D02*
X+1244600Y-1518920D01*
X+1292225Y-1564640D01*
X+1339850Y-1518920D01*
X+1339850Y-1610360D01*
X+1371600Y-1610360D02*
X+1371600Y-1518920D01*
X+1450975Y-1518920D01*
X+1466850Y-1534160D01*
X+1466850Y-1549400D01*
X+1450975Y-1564640D01*
X+1371600Y-1564640D01*
X+431800Y-2667000D02*
X+431800Y-2514600D01*
X+511175Y-2514600D01*
X+527050Y-2540000D01*
X+527050Y-2565400D01*
X+511175Y-2590800D01*
X+431800Y-2590800D01*
X+511175Y-2590800D02*
X+527050Y-2616200D01*
X+527050Y-2667000D01*
X+558800Y-2514600D02*
X+654050Y-2667000D01*
X+558800Y-2667000D02*
X+654050Y-2514600D01*
X+939800Y-2501900D02*
X+1035050Y-2501900D01*
X+987425Y-2501900D02*
X+987425Y-2654300D01*
X+1066800Y-2501900D02*
X+1162050Y-2654300D01*
X+1066800Y-2654300D02*
X+1162050Y-2501900D01*
X+1485900Y-2616200D02*
X+1517650Y-2616200D01*
X+1517650Y-2667000D01*
X+1454150Y-2667000D01*
X+1422400Y-2616200D01*
X+1422400Y-2565400D01*
X+1454150Y-2514600D01*
X+1501775Y-2514600D01*
X+1517650Y-2540000D01*
X+1549400Y-2667000D02*
X+1549400Y-2514600D01*
X+1644650Y-2667000D01*
X+1644650Y-2514600D01*
X+1676400Y-2667000D02*
X+1676400Y-2514600D01*
X+1739900Y-2514600D01*
X+1771650Y-2565400D01*
X+1771650Y-2616200D01*
X+1739900Y-2667000D01*
X+1676400Y-2667000D01*
X+1826300Y+4854100D02*
X+1826300Y+3838100D01*
X+2842300Y+4854100D02*
X+2842300Y+3838100D01*
X+1826300Y+3838100D02*
X+2842300Y+3838100D01*
X+1826300Y+4854100D02*
X+2842300Y+4854100D01*
X+1635800Y+4925220D02*
X+1635800Y+4909980D01*
X+1651675Y+4894740D01*
X+1715175Y+4894740D01*
X+1731050Y+4909980D01*
X+1731050Y+4986180D01*
X+1794550Y+4955700D02*
X+1826300Y+4986180D01*
X+1826300Y+4894740D01*
X+2016800Y+4894740D02*
X+2016800Y+4986180D01*
X+2064425Y+4940460D01*
X+2112050Y+4986180D01*
X+2112050Y+4894740D01*
X+2143800Y+4894740D02*
X+2143800Y+4955700D01*
X+2175550Y+4986180D01*
X+2207300Y+4986180D01*
X+2239050Y+4955700D01*
X+2239050Y+4894740D01*
X+2143800Y+4925220D02*
X+2239050Y+4925220D01*
X+2286675Y+4986180D02*
X+2350175Y+4986180D01*
X+2318425Y+4986180D02*
X+2318425Y+4894740D01*
X+2286675Y+4894740D02*
X+2350175Y+4894740D01*
X+2397800Y+4894740D02*
X+2397800Y+4986180D01*
X+2493050Y+4894740D01*
X+2493050Y+4986180D01*
X+2524800Y+4986180D02*
X+2620050Y+4986180D01*
X+2572425Y+4986180D02*
X+2572425Y+4894740D01*
X+2651800Y+4894740D02*
X+2651800Y+4955700D01*
X+2683550Y+4986180D01*
X+2715300Y+4986180D01*
X+2747050Y+4955700D01*
X+2747050Y+4894740D01*
X+2651800Y+4925220D02*
X+2747050Y+4925220D01*
X+2794675Y+4986180D02*
X+2858175Y+4986180D01*
X+2826425Y+4986180D02*
X+2826425Y+4894740D01*
X+2794675Y+4894740D02*
X+2858175Y+4894740D01*
X+2905800Y+4894740D02*
X+2905800Y+4986180D01*
X+3001050Y+4894740D01*
X+3001050Y+4986180D01*
X+1079500Y+1104900D02*
X+1079500Y+88900D01*
X+2095500Y+1104900D02*
X+2095500Y+88900D01*
X+1079500Y+88900D02*
X+2095500Y+88900D01*
X+1079500Y+1104900D02*
X+2095500Y+1104900D01*
X+1168400Y+1181100D02*
X+1168400Y+1170940D01*
X+1177925Y+1160780D01*
X+1216025Y+1160780D01*
X+1225550Y+1170940D01*
X+1225550Y+1221740D01*
X+1301750Y+1211580D02*
X+1292225Y+1221740D01*
X+1263650Y+1221740D01*
X+1254125Y+1211580D01*
X+1254125Y+1170940D01*
X+1263650Y+1160780D01*
X+1292225Y+1160780D01*
X+1301750Y+1170940D01*
X+1301750Y+1181100D01*
X+1292225Y+1191260D01*
X+1254125Y+1191260D01*
X+1397000Y+1170940D02*
X+1406525Y+1160780D01*
X+1444625Y+1160780D01*
X+1454150Y+1170940D01*
X+1454150Y+1181100D01*
X+1444625Y+1191260D01*
X+1406525Y+1191260D01*
X+1397000Y+1201420D01*
X+1397000Y+1211580D01*
X+1406525Y+1221740D01*
X+1444625Y+1221740D01*
X+1454150Y+1211580D01*
X+1473200Y+1221740D02*
X+1473200Y+1160780D01*
X+1501775Y+1191260D01*
X+1530350Y+1160780D01*
X+1530350Y+1221740D01*
X+1558925Y+1221740D02*
X+1597025Y+1221740D01*
X+1577975Y+1221740D02*
X+1577975Y+1160780D01*
X+1558925Y+1160780D02*
X+1597025Y+1160780D01*
X+1625600Y+1221740D02*
X+1682750Y+1221740D01*
X+1654175Y+1221740D02*
X+1654175Y+1160780D01*
X+1758950Y+1170940D02*
X+1749425Y+1160780D01*
X+1720850Y+1160780D01*
X+1701800Y+1181100D01*
X+1701800Y+1201420D01*
X+1720850Y+1221740D01*
X+1749425Y+1221740D01*
X+1758950Y+1211580D01*
X+1778000Y+1160780D02*
X+1778000Y+1221740D01*
X+1835150Y+1221740D02*
X+1835150Y+1160780D01*
X+1778000Y+1191260D02*
X+1835150Y+1191260D01*
X+1949450Y+1201420D02*
X+1968500Y+1221740D01*
X+1968500Y+1160780D01*
X+1117600Y+1422400D02*
X+1879600Y+1422400D01*
X+1879600Y+1676400D01*
X+1117600Y+1676400D01*
X+1117600Y+1422400D01*
X+1117600Y+1676400D02*
X+1117600Y+1803400D01*
X+1879600Y+1803400D01*
X+1879600Y+1676400D01*
X+1117600Y+1676400D02*
X+1244600Y+1803400D01*
X+1244600Y+1676400D02*
X+1371600Y+1803400D01*
X+1371600Y+1676400D02*
X+1498600Y+1803400D01*
X+1498600Y+1676400D02*
X+1625600Y+1803400D01*
X+1625600Y+1676400D02*
X+1752600Y+1803400D01*
X+1752600Y+1676400D02*
X+1879600Y+1803400D01*
X+1371600Y+1930400D02*
X+1403350Y+1960880D01*
X+1435100Y+1960880D01*
X+1466850Y+1930400D01*
X+1466850Y+1899920D01*
X+1435100Y+1869440D01*
X+1403350Y+1869440D01*
X+1371600Y+1899920D01*
X+1371600Y+1930400D01*
X+1435100Y+1899920D02*
X+1466850Y+1869440D01*
X+1530350Y+1930400D02*
X+1562100Y+1960880D01*
X+1562100Y+1869440D01*
X+1266550Y+3285850D02*
X+1266550Y+3412850D01*
X+1774550Y+3412850D01*
X+1774550Y+2904850D01*
X+1266550Y+2904850D01*
X+1266550Y+3031850D01*
X+1393550Y+3158850D02*
X+1391114Y+3184726D01*
X+1384065Y+3208698D01*
X+1372788Y+3230288D01*
X+1357672Y+3249020D01*
X+1339104Y+3264419D01*
X+1317469Y+3276008D01*
X+1293156Y+3283310D01*
X+1266550Y+3285850D01*
X+1393550Y+3158850D02*
X+1391114Y+3132244D01*
X+1384065Y+3107931D01*
X+1372788Y+3086296D01*
X+1357672Y+3067728D01*
X+1339104Y+3052612D01*
X+1317469Y+3041335D01*
X+1293156Y+3034286D01*
X+1266550Y+3031850D01*
X+1134470Y+3031850D02*
X+1210670Y+3031850D01*
X+1225910Y+3047725D01*
X+1225910Y+3111225D01*
X+1210670Y+3127100D01*
X+1134470Y+3127100D01*
X+1164950Y+3190600D02*
X+1134470Y+3222350D01*
X+1225910Y+3222350D01*
D22*
X-1995300Y-3350000D02*
X+3114700Y-3350000D01*
X+3114700Y+6150000D01*
X-1995300Y+6150000D01*
X-1995300Y-3350000D01*
D26*
X+966000Y-202000D02*
X+966000Y-1218000D01*
X+2490000Y-202000D02*
X+2490000Y-1218000D01*
X+966000Y-1218000D02*
X+2490000Y-1218000D01*
X+2490000Y-202000D02*
X+966000Y-202000D01*
X+1347000Y-130880D02*
X+1347000Y-146120D01*
X+1362875Y-161360D01*
X+1426375Y-161360D01*
X+1442250Y-146120D01*
X+1442250Y-69920D01*
X+1489875Y-85160D02*
X+1505750Y-69920D01*
X+1553375Y-69920D01*
X+1569250Y-85160D01*
X+1569250Y-100400D01*
X+1553375Y-115640D01*
X+1569250Y-130880D01*
X+1569250Y-146120D01*
X+1553375Y-161360D01*
X+1505750Y-161360D01*
X+1489875Y-146120D01*
X+1521625Y-115640D02*
X+1553375Y-115640D01*
X+1728000Y-69920D02*
X+1728000Y-161360D01*
X+1823250Y-161360D01*
X+1950250Y-146120D02*
X+1934375Y-161360D01*
X+1886750Y-161360D01*
X+1855000Y-130880D01*
X+1855000Y-100400D01*
X+1886750Y-69920D01*
X+1934375Y-69920D01*
X+1950250Y-85160D01*
X+1982000Y-161360D02*
X+1982000Y-69920D01*
X+2045500Y-69920D01*
X+2077250Y-100400D01*
X+2077250Y-130880D01*
X+2045500Y-161360D01*
X+1982000Y-161360D01*
M02*
