G04 PROTEUS GERBER X2 FILE*
%TF.GenerationSoftware,Labcenter,Proteus,8.13-SP0-Build31525*%
%TF.CreationDate,2024-05-12T14:24:26+00:00*%
%TF.FileFunction,Legend,Bot*%
%TF.FilePolarity,Positive*%
%TF.Part,Single*%
%TF.SameCoordinates,{a0f7e056-3ba2-47e4-9380-b7f19c802b0c}*%
%FSLAX45Y45*%
%MOMM*%
G01*
%TA.AperFunction,Material*%
%ADD27C,0.200000*%
%ADD26C,0.203200*%
%TA.AperFunction,Profile*%
%ADD22C,0.203200*%
%TD.AperFunction*%
D27*
X-902800Y-1073400D02*
X-902800Y-973400D01*
X-722800Y-1073400D02*
X-722800Y-973400D01*
D26*
X-590880Y-832900D02*
X-682320Y-832900D01*
X-682320Y-912275D01*
X-667080Y-928150D01*
X-651840Y-928150D01*
X-636600Y-912275D01*
X-636600Y-832900D01*
X-636600Y-912275D02*
X-621360Y-928150D01*
X-590880Y-928150D01*
X-651840Y-991650D02*
X-682320Y-1023400D01*
X-590880Y-1023400D01*
X-651840Y-1118650D02*
X-682320Y-1150400D01*
X-590880Y-1150400D01*
D27*
X-509100Y-1071300D02*
X-509100Y-971300D01*
X-329100Y-1071300D02*
X-329100Y-971300D01*
D26*
X-197180Y-830800D02*
X-288620Y-830800D01*
X-288620Y-910175D01*
X-273380Y-926050D01*
X-258140Y-926050D01*
X-242900Y-910175D01*
X-242900Y-830800D01*
X-242900Y-910175D02*
X-227660Y-926050D01*
X-197180Y-926050D01*
X-273380Y-973675D02*
X-288620Y-989550D01*
X-288620Y-1037175D01*
X-273380Y-1053050D01*
X-258140Y-1053050D01*
X-242900Y-1037175D01*
X-242900Y-989550D01*
X-227660Y-973675D01*
X-197180Y-973675D01*
X-197180Y-1053050D01*
X-288620Y-1100675D02*
X-288620Y-1180050D01*
X-273380Y-1180050D01*
X-197180Y-1100675D01*
D27*
X-1309200Y-1073400D02*
X-1309200Y-963400D01*
X-1129200Y-1073400D02*
X-1129200Y-963400D01*
D26*
X-1012520Y-986650D02*
X-997280Y-970775D01*
X-997280Y-923150D01*
X-1027760Y-891400D01*
X-1058240Y-891400D01*
X-1088720Y-923150D01*
X-1088720Y-970775D01*
X-1073480Y-986650D01*
X-1058240Y-1050150D02*
X-1088720Y-1081900D01*
X-997280Y-1081900D01*
D27*
X-128100Y-1086100D02*
X-128100Y-976100D01*
X+51900Y-1086100D02*
X+51900Y-976100D01*
D26*
X+168580Y-999350D02*
X+183820Y-983475D01*
X+183820Y-935850D01*
X+153340Y-904100D01*
X+122860Y-904100D01*
X+92380Y-935850D01*
X+92380Y-983475D01*
X+107620Y-999350D01*
X+107620Y-1046975D02*
X+92380Y-1062850D01*
X+92380Y-1110475D01*
X+107620Y-1126350D01*
X+122860Y-1126350D01*
X+138100Y-1110475D01*
X+138100Y-1062850D01*
X+153340Y-1046975D01*
X+183820Y-1046975D01*
X+183820Y-1126350D01*
D27*
X+240200Y-1086100D02*
X+240200Y-986100D01*
X+420200Y-1086100D02*
X+420200Y-986100D01*
D26*
X+552120Y-845600D02*
X+460680Y-845600D01*
X+460680Y-924975D01*
X+475920Y-940850D01*
X+491160Y-940850D01*
X+506400Y-924975D01*
X+506400Y-845600D01*
X+506400Y-924975D02*
X+521640Y-940850D01*
X+552120Y-940850D01*
X+491160Y-1004350D02*
X+460680Y-1036100D01*
X+552120Y-1036100D01*
X+536880Y-1099600D02*
X+475920Y-1099600D01*
X+460680Y-1115475D01*
X+460680Y-1178975D01*
X+475920Y-1194850D01*
X+536880Y-1194850D01*
X+552120Y-1178975D01*
X+552120Y-1115475D01*
X+536880Y-1099600D01*
X+552120Y-1099600D02*
X+460680Y-1194850D01*
D27*
X+608500Y-1086100D02*
X+608500Y-986100D01*
X+788500Y-1086100D02*
X+788500Y-986100D01*
D26*
X+920420Y-845600D02*
X+828980Y-845600D01*
X+828980Y-924975D01*
X+844220Y-940850D01*
X+859460Y-940850D01*
X+874700Y-924975D01*
X+874700Y-845600D01*
X+874700Y-924975D02*
X+889940Y-940850D01*
X+920420Y-940850D01*
X+844220Y-988475D02*
X+828980Y-1004350D01*
X+828980Y-1051975D01*
X+844220Y-1067850D01*
X+859460Y-1067850D01*
X+874700Y-1051975D01*
X+874700Y-1004350D01*
X+889940Y-988475D01*
X+920420Y-988475D01*
X+920420Y-1067850D01*
X+844220Y-1194850D02*
X+828980Y-1178975D01*
X+828980Y-1131350D01*
X+844220Y-1115475D01*
X+905180Y-1115475D01*
X+920420Y-1131350D01*
X+920420Y-1178975D01*
X+905180Y-1194850D01*
X+889940Y-1194850D01*
X+874700Y-1178975D01*
X+874700Y-1115475D01*
D27*
X+2029650Y+3216250D02*
X+2029650Y+3116250D01*
X+1849650Y+3216250D02*
X+1849650Y+3116250D01*
D26*
X+1796470Y+3331350D02*
X+1705030Y+3331350D01*
X+1705030Y+3251975D01*
X+1720270Y+3236100D01*
X+1735510Y+3236100D01*
X+1750750Y+3251975D01*
X+1750750Y+3331350D01*
X+1750750Y+3251975D02*
X+1765990Y+3236100D01*
X+1796470Y+3236100D01*
X+1735510Y+3172600D02*
X+1705030Y+3140850D01*
X+1796470Y+3140850D01*
X+1720270Y+3061475D02*
X+1705030Y+3045600D01*
X+1705030Y+2997975D01*
X+1720270Y+2982100D01*
X+1735510Y+2982100D01*
X+1750750Y+2997975D01*
X+1750750Y+3045600D01*
X+1765990Y+3061475D01*
X+1796470Y+3061475D01*
X+1796470Y+2982100D01*
D27*
X+1192750Y+2417550D02*
X+1292750Y+2417550D01*
X+1192750Y+2237550D02*
X+1292750Y+2237550D01*
D26*
X+1433250Y+2486630D02*
X+1433250Y+2578070D01*
X+1353875Y+2578070D01*
X+1338000Y+2562830D01*
X+1338000Y+2547590D01*
X+1353875Y+2532350D01*
X+1433250Y+2532350D01*
X+1353875Y+2532350D02*
X+1338000Y+2517110D01*
X+1338000Y+2486630D01*
X+1274500Y+2547590D02*
X+1242750Y+2578070D01*
X+1242750Y+2486630D01*
X+1084000Y+2517110D02*
X+1179250Y+2517110D01*
X+1115750Y+2578070D01*
X+1115750Y+2486630D01*
D27*
X+1781150Y+2243350D02*
X+1681150Y+2243350D01*
X+1781150Y+2423350D02*
X+1681150Y+2423350D01*
D26*
X+1921650Y+2463830D02*
X+1921650Y+2555270D01*
X+1842275Y+2555270D01*
X+1826400Y+2540030D01*
X+1826400Y+2524790D01*
X+1842275Y+2509550D01*
X+1921650Y+2509550D01*
X+1842275Y+2509550D02*
X+1826400Y+2494310D01*
X+1826400Y+2463830D01*
X+1762900Y+2524790D02*
X+1731150Y+2555270D01*
X+1731150Y+2463830D01*
X+1651775Y+2540030D02*
X+1635900Y+2555270D01*
X+1588275Y+2555270D01*
X+1572400Y+2540030D01*
X+1572400Y+2524790D01*
X+1588275Y+2509550D01*
X+1572400Y+2494310D01*
X+1572400Y+2479070D01*
X+1588275Y+2463830D01*
X+1635900Y+2463830D01*
X+1651775Y+2479070D01*
X+1620025Y+2509550D02*
X+1588275Y+2509550D01*
D22*
X-1995300Y-3350000D02*
X+3114700Y-3350000D01*
X+3114700Y+6150000D01*
X-1995300Y+6150000D01*
X-1995300Y-3350000D01*
M02*
